<?xml version="1.0" encoding="UTF-8" standalone="no"?><svg xmlns="http://www.w3.org/2000/svg" xmlns:xlink="http://www.w3.org/1999/xlink" contentStyleType="text/css" height="1573px" preserveAspectRatio="none" style="width:1565px;height:1573px;background:#FFFFFF;" version="1.1" viewBox="0 0 1565 1573" width="1565px" zoomAndPan="magnify"><defs/><g><rect fill="#F1F1F1" height="39.1201" rx="12.5" ry="12.5" style="stroke:#181818;stroke-width:1.5;" width="168" x="10" y="20"/><text fill="#000000" font-family="sans-serif" font-size="14" lengthAdjust="spacing" textLength="148" x="20" y="46.0439">__do_global_dtors_aux</text><rect fill="#F1F1F1" height="39.1201" rx="12.5" ry="12.5" style="stroke:#181818;stroke-width:1.5;" width="156" x="228" y="20"/><text fill="#000000" font-family="sans-serif" font-size="14" lengthAdjust="spacing" textLength="136" x="238" y="46.0439">deregister_tm_clones</text><path d="M178,39.5601 L188,39.5601 C203,39.5601 203,39.5601 218,39.5601 L228,39.5601 " fill="none" style="stroke:#181818;stroke-width:1.0;"/><rect fill="#F1F1F1" height="39.1201" rx="12.5" ry="12.5" style="stroke:#181818;stroke-width:1.5;" width="109" x="10" y="79.1201"/><text fill="#000000" font-family="sans-serif" font-size="14" lengthAdjust="spacing" textLength="89" x="20" y="105.1641">frame_dummy</text><rect fill="#F1F1F1" height="39.1201" rx="12.5" ry="12.5" style="stroke:#181818;stroke-width:1.5;" width="140" x="169" y="79.1201"/><text fill="#000000" font-family="sans-serif" font-size="14" lengthAdjust="spacing" textLength="120" x="179" y="105.1641">register_tm_clones</text><path d="M119,98.6802 L129,98.6802 C144,98.6802 144,98.6802 159,98.6802 L169,98.6802 " fill="none" style="stroke:#181818;stroke-width:1.0;"/><rect fill="#F1F1F1" height="39.1201" rx="12.5" ry="12.5" style="stroke:#181818;stroke-width:1.5;" width="105" x="10" y="138.2402"/><text fill="#000000" font-family="sans-serif" font-size="14" lengthAdjust="spacing" textLength="85" x="20" y="164.2842">SVC_Handler</text><rect fill="#F1F1F1" height="39.1201" rx="12.5" ry="12.5" style="stroke:#181818;stroke-width:1.5;" width="146" x="10" y="197.3604"/><text fill="#000000" font-family="sans-serif" font-size="14" lengthAdjust="spacing" textLength="126" x="20" y="223.4043">DebugMon_Handler</text><rect fill="#F1F1F1" height="39.1201" rx="12.5" ry="12.5" style="stroke:#181818;stroke-width:1.5;" width="128" x="10" y="256.4805"/><text fill="#000000" font-family="sans-serif" font-size="14" lengthAdjust="spacing" textLength="108" x="20" y="282.5244">PendSV_Handler</text><rect fill="#F1F1F1" height="39.1201" rx="12.5" ry="12.5" style="stroke:#181818;stroke-width:1.5;" width="126" x="10" y="315.6006"/><text fill="#000000" font-family="sans-serif" font-size="14" lengthAdjust="spacing" textLength="106" x="20" y="341.6445">SysTick_Handler</text><rect fill="#F1F1F1" height="39.1201" rx="12.5" ry="12.5" style="stroke:#181818;stroke-width:1.5;" width="98" x="186" y="315.6006"/><text fill="#000000" font-family="sans-serif" font-size="14" lengthAdjust="spacing" textLength="78" x="196" y="341.6445">HAL_IncTick</text><path d="M136,335.1606 L146,335.1606 C161,335.1606 161,335.1606 176,335.1606 L186,335.1606 " fill="none" style="stroke:#181818;stroke-width:1.0;"/><rect fill="#F1F1F1" height="39.1201" rx="12.5" ry="12.5" style="stroke:#181818;stroke-width:1.5;" width="94" x="10" y="374.7207"/><text fill="#000000" font-family="sans-serif" font-size="14" lengthAdjust="spacing" textLength="74" x="20" y="400.7646">RCC_Delay</text><rect fill="#F1F1F1" height="39.1201" rx="12.5" ry="12.5" style="stroke:#181818;stroke-width:1.5;" width="114" x="10" y="973.3119"/><text fill="#000000" font-family="sans-serif" font-size="14" lengthAdjust="spacing" textLength="94" x="20" y="999.3558">Reset_Handler</text><rect fill="#F1F1F1" height="39.1201" rx="12.5" ry="12.5" style="stroke:#181818;stroke-width:1.5;" width="84" x="174" y="914.1918"/><text fill="#000000" font-family="sans-serif" font-size="14" lengthAdjust="spacing" textLength="64" x="184" y="940.2357">SystemInit</text><path d="M124,992.8719 L134,992.8719 C149,992.8719 149,933.7518 164,933.7518 L174,933.7518 " fill="none" style="stroke:#181818;stroke-width:1.0;"/><rect fill="#F1F1F1" height="39.1201" rx="12.5" ry="12.5" style="stroke:#181818;stroke-width:1.5;" width="133" x="174" y="973.3119"/><text fill="#000000" font-family="sans-serif" font-size="14" lengthAdjust="spacing" textLength="113" x="184" y="999.3558">LoopCopyDataInit</text><rect fill="#F1F1F1" height="39.1201" rx="12.5" ry="12.5" style="stroke:#181818;stroke-width:1.5;" width="101" x="357" y="914.1918"/><text fill="#000000" font-family="sans-serif" font-size="14" lengthAdjust="spacing" textLength="81" x="367" y="940.2357">CopyDataInit</text><path d="M307,992.8719 L317,992.8719 C332,992.8719 332,933.7518 347,933.7518 L357,933.7518 " fill="none" style="stroke:#181818;stroke-width:1.0;"/><rect fill="#F1F1F1" height="39.1201" rx="12.5" ry="12.5" style="stroke:#181818;stroke-width:1.5;" width="121" x="357" y="973.3119"/><text fill="#000000" font-family="sans-serif" font-size="14" lengthAdjust="spacing" textLength="101" x="367" y="999.3558">LoopFillZerobss</text><rect fill="#F1F1F1" height="39.1201" rx="12.5" ry="12.5" style="stroke:#181818;stroke-width:1.5;" width="89" x="528" y="433.8408"/><text fill="#000000" font-family="sans-serif" font-size="14" lengthAdjust="spacing" textLength="69" x="538" y="459.8848">FillZerobss</text><path d="M478,992.8719 L488,992.8719 C503,992.8719 503,453.4009 518,453.4009 L528,453.4009 " fill="none" style="stroke:#181818;stroke-width:1.0;"/><rect fill="#F1F1F1" height="39.1201" rx="12.5" ry="12.5" style="stroke:#181818;stroke-width:1.5;" width="124" x="528" y="492.9609"/><text fill="#000000" font-family="sans-serif" font-size="14" lengthAdjust="spacing" textLength="104" x="538" y="519.0049">__libc_init_array</text><rect fill="#F1F1F1" height="39.1201" rx="12.5" ry="12.5" style="stroke:#181818;stroke-width:1.5;" width="46" x="702" y="492.9609"/><text fill="#000000" font-family="sans-serif" font-size="14" lengthAdjust="spacing" textLength="26" x="712" y="519.0049">_init</text><path d="M652,512.521 L662,512.521 C677,512.521 677,512.521 692,512.521 L702,512.521 " fill="none" style="stroke:#181818;stroke-width:1.0;"/><path d="M478,992.8719 L488,992.8719 C503,992.8719 503,512.521 518,512.521 L528,512.521 " fill="none" style="stroke:#181818;stroke-width:1.0;"/><rect fill="#F1F1F1" height="39.1201" rx="12.5" ry="12.5" style="stroke:#181818;stroke-width:1.5;" width="50" x="528" y="1032.432"/><text fill="#000000" font-family="sans-serif" font-size="14" lengthAdjust="spacing" textLength="30" x="538" y="1058.476">main</text><rect fill="#F1F1F1" height="39.1201" rx="12.5" ry="12.5" style="stroke:#181818;stroke-width:1.5;" width="72" x="628" y="633.3712"/><text fill="#000000" font-family="sans-serif" font-size="14" lengthAdjust="spacing" textLength="52" x="638" y="659.4152">HAL_Init</text><rect fill="#F1F1F1" height="39.1201" rx="12.5" ry="12.5" style="stroke:#181818;stroke-width:1.5;" width="217" x="750" y="552.0811"/><text fill="#000000" font-family="sans-serif" font-size="14" lengthAdjust="spacing" textLength="197" x="760" y="578.125">HAL_NVIC_SetPriorityGrouping</text><path d="M700,652.9313 L710,652.9313 C725,652.9313 725,571.6411 740,571.6411 L750,571.6411 " fill="none" style="stroke:#181818;stroke-width:1.0;"/><rect fill="#F1F1F1" height="39.1201" rx="12.5" ry="12.5" style="stroke:#181818;stroke-width:1.5;" width="98" x="750" y="655.5413"/><text fill="#000000" font-family="sans-serif" font-size="14" lengthAdjust="spacing" textLength="78" x="760" y="681.5852">HAL_InitTick</text><rect fill="#F1F1F1" height="39.1201" rx="12.5" ry="12.5" style="stroke:#181818;stroke-width:1.5;" width="161" x="898" y="611.2012"/><text fill="#000000" font-family="sans-serif" font-size="14" lengthAdjust="spacing" textLength="141" x="908" y="637.2451">HAL_SYSTICK_Config</text><path d="M848,675.1013 L858,675.1013 C873,675.1013 873,630.7612 888,630.7612 L898,630.7612 " fill="none" style="stroke:#181818;stroke-width:1.0;"/><rect fill="#F1F1F1" height="39.1201" rx="12.5" ry="12.5" style="stroke:#181818;stroke-width:1.5;" width="158" x="898" y="670.3213"/><text fill="#000000" font-family="sans-serif" font-size="14" lengthAdjust="spacing" textLength="138" x="908" y="696.3652">HAL_NVIC_SetPriority</text><rect fill="#F1F1F1" height="39.1201" rx="12.5" ry="12.5" style="stroke:#181818;stroke-width:1.5;" width="151" x="1106" y="640.7612"/><text fill="#000000" font-family="sans-serif" font-size="14" lengthAdjust="spacing" textLength="131" x="1116" y="666.8052">NVIC_EncodePriority</text><path d="M1056,689.8813 L1066,689.8813 C1081,689.8813 1081,660.3213 1096,660.3213 L1106,660.3213 " fill="none" style="stroke:#181818;stroke-width:1.0;"/><rect fill="#F1F1F1" height="39.1201" rx="12.5" ry="12.5" style="stroke:#181818;stroke-width:1.5;" width="140" x="1106" y="699.8813"/><text fill="#000000" font-family="sans-serif" font-size="14" lengthAdjust="spacing" textLength="120" x="1116" y="725.9253">__NVIC_SetPriority</text><path d="M1056,689.8813 L1066,689.8813 C1081,689.8813 1081,719.4414 1096,719.4414 L1106,719.4414 " fill="none" style="stroke:#181818;stroke-width:1.0;"/><path d="M848,675.1013 L858,675.1013 C873,675.1013 873,689.8813 888,689.8813 L898,689.8813 " fill="none" style="stroke:#181818;stroke-width:1.0;"/><path d="M700,652.9313 L710,652.9313 C725,652.9313 725,675.1013 740,675.1013 L750,675.1013 " fill="none" style="stroke:#181818;stroke-width:1.0;"/><rect fill="#F1F1F1" height="39.1201" rx="12.5" ry="12.5" style="stroke:#181818;stroke-width:1.5;" width="98" x="750" y="714.6614"/><text fill="#000000" font-family="sans-serif" font-size="14" lengthAdjust="spacing" textLength="78" x="760" y="740.7053">HAL_MspInit</text><path d="M700,652.9313 L710,652.9313 C725,652.9313 725,734.2214 740,734.2214 L750,734.2214 " fill="none" style="stroke:#181818;stroke-width:1.0;"/><path d="M578,1051.9921 L588,1051.9921 C603,1051.9921 603,652.9313 618,652.9313 L628,652.9313 " fill="none" style="stroke:#181818;stroke-width:1.0;"/><rect fill="#F1F1F1" height="39.1201" rx="12.5" ry="12.5" style="stroke:#181818;stroke-width:1.5;" width="150" x="628" y="906.8018"/><text fill="#000000" font-family="sans-serif" font-size="14" lengthAdjust="spacing" textLength="130" x="638" y="932.8457">SystemClock_Config</text><rect fill="#F1F1F1" height="39.1201" rx="12.5" ry="12.5" style="stroke:#181818;stroke-width:1.5;" width="69" x="828" y="788.5615"/><text fill="#000000" font-family="sans-serif" font-size="14" lengthAdjust="spacing" textLength="49" x="838" y="814.6055">memset</text><path d="M778,926.3618 L788,926.3618 C803,926.3618 803,808.1216 818,808.1216 L828,808.1216 " fill="none" style="stroke:#181818;stroke-width:1.0;"/><rect fill="#F1F1F1" height="39.1201" rx="12.5" ry="12.5" style="stroke:#181818;stroke-width:1.5;" width="158" x="828" y="847.6816"/><text fill="#000000" font-family="sans-serif" font-size="14" lengthAdjust="spacing" textLength="138" x="838" y="873.7256">HAL_RCC_OscConfig</text><path d="M778,926.3618 L788,926.3618 C803,926.3618 803,867.2417 818,867.2417 L828,867.2417 " fill="none" style="stroke:#181818;stroke-width:1.0;"/><rect fill="#F1F1F1" height="39.1201" rx="12.5" ry="12.5" style="stroke:#181818;stroke-width:1.5;" width="168" x="828" y="906.8018"/><text fill="#000000" font-family="sans-serif" font-size="14" lengthAdjust="spacing" textLength="148" x="838" y="932.8457">HAL_RCC_ClockConfig</text><rect fill="#F1F1F1" height="39.1201" rx="12.5" ry="12.5" style="stroke:#181818;stroke-width:1.5;" width="103" x="1046" y="773.7815"/><text fill="#000000" font-family="sans-serif" font-size="14" lengthAdjust="spacing" textLength="83" x="1056" y="799.8254">HAL_GetTick</text><path d="M996,926.3618 L1006,926.3618 C1021,926.3618 1021,793.3416 1036,793.3416 L1046,793.3416 " fill="none" style="stroke:#181818;stroke-width:1.0;"/><rect fill="#F1F1F1" height="39.1201" rx="12.5" ry="12.5" style="stroke:#181818;stroke-width:1.5;" width="103" x="1046" y="832.9016"/><text fill="#000000" font-family="sans-serif" font-size="14" lengthAdjust="spacing" textLength="83" x="1056" y="858.9456">HAL_GetTick</text><path d="M996,926.3618 L1006,926.3618 C1021,926.3618 1021,852.4617 1036,852.4617 L1046,852.4617 " fill="none" style="stroke:#181818;stroke-width:1.0;"/><rect fill="#F1F1F1" height="39.1201" rx="12.5" ry="12.5" style="stroke:#181818;stroke-width:1.5;" width="203" x="1046" y="892.0217"/><text fill="#000000" font-family="sans-serif" font-size="14" lengthAdjust="spacing" textLength="183" x="1056" y="918.0657">HAL_RCC_GetSysClockFreq</text><path d="M996,926.3618 L1006,926.3618 C1021,926.3618 1021,911.5818 1036,911.5818 L1046,911.5818 " fill="none" style="stroke:#181818;stroke-width:1.0;"/><rect fill="#F1F1F1" height="39.1201" rx="12.5" ry="12.5" style="stroke:#181818;stroke-width:1.5;" width="98" x="1046" y="995.4819"/><text fill="#000000" font-family="sans-serif" font-size="14" lengthAdjust="spacing" textLength="78" x="1056" y="1021.5259">HAL_InitTick</text><rect fill="#F1F1F1" height="39.1201" rx="12.5" ry="12.5" style="stroke:#181818;stroke-width:1.5;" width="161" x="1194" y="951.1418"/><text fill="#000000" font-family="sans-serif" font-size="14" lengthAdjust="spacing" textLength="141" x="1204" y="977.1858">HAL_SYSTICK_Config</text><path d="M1144,1015.042 L1154,1015.042 C1169,1015.042 1169,970.7019 1184,970.7019 L1194,970.7019 " fill="none" style="stroke:#181818;stroke-width:1.0;"/><rect fill="#F1F1F1" height="39.1201" rx="12.5" ry="12.5" style="stroke:#181818;stroke-width:1.5;" width="158" x="1194" y="1010.262"/><text fill="#000000" font-family="sans-serif" font-size="14" lengthAdjust="spacing" textLength="138" x="1204" y="1036.3059">HAL_NVIC_SetPriority</text><rect fill="#F1F1F1" height="39.1201" rx="12.5" ry="12.5" style="stroke:#181818;stroke-width:1.5;" width="151" x="1402" y="980.7019"/><text fill="#000000" font-family="sans-serif" font-size="14" lengthAdjust="spacing" textLength="131" x="1412" y="1006.7458">NVIC_EncodePriority</text><path d="M1352,1029.822 L1362,1029.822 C1377,1029.822 1377,1000.262 1392,1000.262 L1402,1000.262 " fill="none" style="stroke:#181818;stroke-width:1.0;"/><rect fill="#F1F1F1" height="39.1201" rx="12.5" ry="12.5" style="stroke:#181818;stroke-width:1.5;" width="140" x="1402" y="1039.822"/><text fill="#000000" font-family="sans-serif" font-size="14" lengthAdjust="spacing" textLength="120" x="1412" y="1065.866">__NVIC_SetPriority</text><path d="M1352,1029.822 L1362,1029.822 C1377,1029.822 1377,1059.3821 1392,1059.3821 L1402,1059.3821 " fill="none" style="stroke:#181818;stroke-width:1.0;"/><path d="M1144,1015.042 L1154,1015.042 C1169,1015.042 1169,1029.822 1184,1029.822 L1194,1029.822 " fill="none" style="stroke:#181818;stroke-width:1.0;"/><path d="M996,926.3618 L1006,926.3618 C1021,926.3618 1021,1015.042 1036,1015.042 L1046,1015.042 " fill="none" style="stroke:#181818;stroke-width:1.0;"/><path d="M778,926.3618 L788,926.3618 C803,926.3618 803,926.3618 818,926.3618 L828,926.3618 " fill="none" style="stroke:#181818;stroke-width:1.0;"/><rect fill="#F1F1F1" height="39.1201" rx="12.5" ry="12.5" style="stroke:#181818;stroke-width:1.5;" width="109" x="828" y="965.9219"/><text fill="#000000" font-family="sans-serif" font-size="14" lengthAdjust="spacing" textLength="89" x="838" y="991.9658">Error_Handler</text><path d="M778,926.3618 L788,926.3618 C803,926.3618 803,985.4819 818,985.4819 L828,985.4819 " fill="none" style="stroke:#181818;stroke-width:1.0;"/><rect fill="#F1F1F1" height="39.1201" rx="12.5" ry="12.5" style="stroke:#181818;stroke-width:1.5;" width="109" x="828" y="1025.042"/><text fill="#000000" font-family="sans-serif" font-size="14" lengthAdjust="spacing" textLength="89" x="838" y="1051.0859">Error_Handler</text><path d="M778,926.3618 L788,926.3618 C803,926.3618 803,1044.6021 818,1044.6021 L828,1044.6021 " fill="none" style="stroke:#181818;stroke-width:1.0;"/><path d="M578,1051.9921 L588,1051.9921 C603,1051.9921 603,926.3618 618,926.3618 L628,926.3618 " fill="none" style="stroke:#181818;stroke-width:1.0;"/><rect fill="#F1F1F1" height="39.1201" rx="12.5" ry="12.5" style="stroke:#181818;stroke-width:1.5;" width="107" x="628" y="1128.5022"/><text fill="#000000" font-family="sans-serif" font-size="14" lengthAdjust="spacing" textLength="87" x="638" y="1154.5461">MX_GPIO_Init</text><rect fill="#F1F1F1" height="39.1201" rx="12.5" ry="12.5" style="stroke:#181818;stroke-width:1.5;" width="149" x="785" y="1098.9421"/><text fill="#000000" font-family="sans-serif" font-size="14" lengthAdjust="spacing" textLength="129" x="795" y="1124.9861">HAL_GPIO_WritePin</text><path d="M735,1148.0623 L745,1148.0623 C760,1148.0623 760,1118.5022 775,1118.5022 L785,1118.5022 " fill="none" style="stroke:#181818;stroke-width:1.0;"/><rect fill="#F1F1F1" height="39.1201" rx="12.5" ry="12.5" style="stroke:#181818;stroke-width:1.5;" width="114" x="785" y="1158.0623"/><text fill="#000000" font-family="sans-serif" font-size="14" lengthAdjust="spacing" textLength="94" x="795" y="1184.1062">HAL_GPIO_Init</text><path d="M735,1148.0623 L745,1148.0623 C760,1148.0623 760,1177.6223 775,1177.6223 L785,1177.6223 " fill="none" style="stroke:#181818;stroke-width:1.0;"/><path d="M578,1051.9921 L588,1051.9921 C603,1051.9921 603,1148.0623 618,1148.0623 L628,1148.0623 " fill="none" style="stroke:#181818;stroke-width:1.0;"/><rect fill="#F1F1F1" height="39.1201" rx="12.5" ry="12.5" style="stroke:#181818;stroke-width:1.5;" width="96" x="628" y="1364.9827"/><text fill="#000000" font-family="sans-serif" font-size="14" lengthAdjust="spacing" textLength="76" x="638" y="1391.0266">my_function</text><rect fill="#F1F1F1" height="39.1201" rx="12.5" ry="12.5" style="stroke:#181818;stroke-width:1.5;" width="149" x="774" y="1217.1824"/><text fill="#000000" font-family="sans-serif" font-size="14" lengthAdjust="spacing" textLength="129" x="784" y="1243.2263">HAL_GPIO_WritePin</text><path d="M724,1384.5427 L734,1384.5427 C749,1384.5427 749,1236.7424 764,1236.7424 L774,1236.7424 " fill="none" style="stroke:#181818;stroke-width:1.0;"/><rect fill="#F1F1F1" height="39.1201" rx="12.5" ry="12.5" style="stroke:#181818;stroke-width:1.5;" width="90" x="774" y="1305.8625"/><text fill="#000000" font-family="sans-serif" font-size="14" lengthAdjust="spacing" textLength="70" x="784" y="1331.9065">HAL_Delay</text><rect fill="#F1F1F1" height="39.1201" rx="12.5" ry="12.5" style="stroke:#181818;stroke-width:1.5;" width="103" x="914" y="1276.3025"/><text fill="#000000" font-family="sans-serif" font-size="14" lengthAdjust="spacing" textLength="83" x="924" y="1302.3464">HAL_GetTick</text><path d="M864,1325.4226 L874,1325.4226 C889,1325.4226 889,1295.8625 904,1295.8625 L914,1295.8625 " fill="none" style="stroke:#181818;stroke-width:1.0;"/><rect fill="#F1F1F1" height="39.1201" rx="12.5" ry="12.5" style="stroke:#181818;stroke-width:1.5;" width="103" x="914" y="1335.4226"/><text fill="#000000" font-family="sans-serif" font-size="14" lengthAdjust="spacing" textLength="83" x="924" y="1361.4666">HAL_GetTick</text><path d="M864,1325.4226 L874,1325.4226 C889,1325.4226 889,1354.9827 904,1354.9827 L914,1354.9827 " fill="none" style="stroke:#181818;stroke-width:1.0;"/><path d="M724,1384.5427 L734,1384.5427 C749,1384.5427 749,1325.4226 764,1325.4226 L774,1325.4226 " fill="none" style="stroke:#181818;stroke-width:1.0;"/><rect fill="#F1F1F1" height="39.1201" rx="12.5" ry="12.5" style="stroke:#181818;stroke-width:1.5;" width="149" x="774" y="1394.5427"/><text fill="#000000" font-family="sans-serif" font-size="14" lengthAdjust="spacing" textLength="129" x="784" y="1420.5867">HAL_GPIO_WritePin</text><path d="M724,1384.5427 L734,1384.5427 C749,1384.5427 749,1414.1028 764,1414.1028 L774,1414.1028 " fill="none" style="stroke:#181818;stroke-width:1.0;"/><rect fill="#F1F1F1" height="39.1201" rx="12.5" ry="12.5" style="stroke:#181818;stroke-width:1.5;" width="90" x="774" y="1483.2229"/><text fill="#000000" font-family="sans-serif" font-size="14" lengthAdjust="spacing" textLength="70" x="784" y="1509.2668">HAL_Delay</text><rect fill="#F1F1F1" height="39.1201" rx="12.5" ry="12.5" style="stroke:#181818;stroke-width:1.5;" width="103" x="914" y="1453.6628"/><text fill="#000000" font-family="sans-serif" font-size="14" lengthAdjust="spacing" textLength="83" x="924" y="1479.7068">HAL_GetTick</text><path d="M864,1502.783 L874,1502.783 C889,1502.783 889,1473.2229 904,1473.2229 L914,1473.2229 " fill="none" style="stroke:#181818;stroke-width:1.0;"/><rect fill="#F1F1F1" height="39.1201" rx="12.5" ry="12.5" style="stroke:#181818;stroke-width:1.5;" width="103" x="914" y="1512.783"/><text fill="#000000" font-family="sans-serif" font-size="14" lengthAdjust="spacing" textLength="83" x="924" y="1538.8269">HAL_GetTick</text><path d="M864,1502.783 L874,1502.783 C889,1502.783 889,1532.343 904,1532.343 L914,1532.343 " fill="none" style="stroke:#181818;stroke-width:1.0;"/><path d="M724,1384.5427 L734,1384.5427 C749,1384.5427 749,1502.783 764,1502.783 L774,1502.783 " fill="none" style="stroke:#181818;stroke-width:1.0;"/><path d="M578,1051.9921 L588,1051.9921 C603,1051.9921 603,1384.5427 618,1384.5427 L628,1384.5427 " fill="none" style="stroke:#181818;stroke-width:1.0;"/><path d="M478,992.8719 L488,992.8719 C503,992.8719 503,1051.9921 518,1051.9921 L528,1051.9921 " fill="none" style="stroke:#181818;stroke-width:1.0;"/><path d="M307,992.8719 L317,992.8719 C332,992.8719 332,992.8719 347,992.8719 L357,992.8719 " fill="none" style="stroke:#181818;stroke-width:1.0;"/><path d="M124,992.8719 L134,992.8719 C149,992.8719 149,992.8719 164,992.8719 L174,992.8719 " fill="none" style="stroke:#181818;stroke-width:1.0;"/><!--MD5=[6a877a9bb74e553c6f14b11608a5db50]
@startmindmap
* __do_global_dtors_aux
** deregister_tm_clones
* frame_dummy
** register_tm_clones
* SVC_Handler
* DebugMon_Handler
* PendSV_Handler
* SysTick_Handler
** HAL_IncTick
* RCC_Delay
* Reset_Handler
** SystemInit
** LoopCopyDataInit
*** CopyDataInit
*** LoopFillZerobss
**** FillZerobss
**** __libc_init_array
***** _init
**** main
***** HAL_Init
****** HAL_NVIC_SetPriorityGrouping
****** HAL_InitTick
******* HAL_SYSTICK_Config
******* HAL_NVIC_SetPriority
******** NVIC_EncodePriority
******** __NVIC_SetPriority
****** HAL_MspInit
***** SystemClock_Config
****** memset
****** HAL_RCC_OscConfig
****** HAL_RCC_ClockConfig
******* HAL_GetTick
******* HAL_GetTick
******* HAL_RCC_GetSysClockFreq
******* HAL_InitTick
******** HAL_SYSTICK_Config
******** HAL_NVIC_SetPriority
********* NVIC_EncodePriority
********* __NVIC_SetPriority
****** Error_Handler
****** Error_Handler
***** MX_GPIO_Init
****** HAL_GPIO_WritePin
****** HAL_GPIO_Init
***** my_function
****** HAL_GPIO_WritePin
****** HAL_Delay
******* HAL_GetTick
******* HAL_GetTick
****** HAL_GPIO_WritePin
****** HAL_Delay
******* HAL_GetTick
******* HAL_GetTick
@endmindmap

PlantUML version 1.2022.7(Tue Aug 23 01:01:30 CST 2022)
(GPL source distribution)
Java Runtime: Java(TM) SE Runtime Environment
JVM: Java HotSpot(TM) 64-Bit Server VM
Default Encoding: GBK
Language: zh
Country: CN
--></g></svg>