<?xml version="1.0" encoding="UTF-8" standalone="no"?><svg xmlns="http://www.w3.org/2000/svg" xmlns:xlink="http://www.w3.org/1999/xlink" contentStyleType="text/css" height="2992px" preserveAspectRatio="none" style="width:1565px;height:2992px;background:#FFFFFF;" version="1.1" viewBox="0 0 1565 2992" width="1565px" zoomAndPan="magnify"><defs/><g><rect fill="#F1F1F1" height="39.1201" rx="12.5" ry="12.5" style="stroke:#181818;stroke-width:1.5;" width="168" x="10" y="20"/><text fill="#000000" font-family="sans-serif" font-size="14" lengthAdjust="spacing" textLength="148" x="20" y="46.0439">__do_global_dtors_aux</text><rect fill="#F1F1F1" height="39.1201" rx="12.5" ry="12.5" style="stroke:#181818;stroke-width:1.5;" width="156" x="228" y="20"/><text fill="#000000" font-family="sans-serif" font-size="14" lengthAdjust="spacing" textLength="136" x="238" y="46.0439">deregister_tm_clones</text><path d="M178,39.5601 L188,39.5601 C203,39.5601 203,39.5601 218,39.5601 L228,39.5601 " fill="none" style="stroke:#181818;stroke-width:1.0;"/><rect fill="#F1F1F1" height="39.1201" rx="12.5" ry="12.5" style="stroke:#181818;stroke-width:1.5;" width="109" x="10" y="79.1201"/><text fill="#000000" font-family="sans-serif" font-size="14" lengthAdjust="spacing" textLength="89" x="20" y="105.1641">frame_dummy</text><rect fill="#F1F1F1" height="39.1201" rx="12.5" ry="12.5" style="stroke:#181818;stroke-width:1.5;" width="140" x="169" y="79.1201"/><text fill="#000000" font-family="sans-serif" font-size="14" lengthAdjust="spacing" textLength="120" x="179" y="105.1641">register_tm_clones</text><path d="M119,98.6802 L129,98.6802 C144,98.6802 144,98.6802 159,98.6802 L169,98.6802 " fill="none" style="stroke:#181818;stroke-width:1.0;"/><rect fill="#F1F1F1" height="39.1201" rx="12.5" ry="12.5" style="stroke:#181818;stroke-width:1.5;" width="105" x="10" y="138.2402"/><text fill="#000000" font-family="sans-serif" font-size="14" lengthAdjust="spacing" textLength="85" x="20" y="164.2842">SVC_Handler</text><rect fill="#F1F1F1" height="39.1201" rx="12.5" ry="12.5" style="stroke:#181818;stroke-width:1.5;" width="146" x="10" y="197.3604"/><text fill="#000000" font-family="sans-serif" font-size="14" lengthAdjust="spacing" textLength="126" x="20" y="223.4043">DebugMon_Handler</text><rect fill="#F1F1F1" height="39.1201" rx="12.5" ry="12.5" style="stroke:#181818;stroke-width:1.5;" width="128" x="10" y="256.4805"/><text fill="#000000" font-family="sans-serif" font-size="14" lengthAdjust="spacing" textLength="108" x="20" y="282.5244">PendSV_Handler</text><rect fill="#F1F1F1" height="39.1201" rx="12.5" ry="12.5" style="stroke:#181818;stroke-width:1.5;" width="126" x="10" y="315.6006"/><text fill="#000000" font-family="sans-serif" font-size="14" lengthAdjust="spacing" textLength="106" x="20" y="341.6445">SysTick_Handler</text><rect fill="#F1F1F1" height="39.1201" rx="12.5" ry="12.5" style="stroke:#181818;stroke-width:1.5;" width="98" x="186" y="315.6006"/><text fill="#000000" font-family="sans-serif" font-size="14" lengthAdjust="spacing" textLength="78" x="196" y="341.6445">HAL_IncTick</text><path d="M136,335.1606 L146,335.1606 C161,335.1606 161,335.1606 176,335.1606 L186,335.1606 " fill="none" style="stroke:#181818;stroke-width:1.0;"/><rect fill="#F1F1F1" height="39.1201" rx="12.5" ry="12.5" style="stroke:#181818;stroke-width:1.5;" width="114" x="10" y="1653.1932"/><text fill="#000000" font-family="sans-serif" font-size="14" lengthAdjust="spacing" textLength="94" x="20" y="1679.2372">Reset_Handler</text><rect fill="#F1F1F1" height="39.1201" rx="12.5" ry="12.5" style="stroke:#181818;stroke-width:1.5;" width="84" x="174" y="1594.0731"/><text fill="#000000" font-family="sans-serif" font-size="14" lengthAdjust="spacing" textLength="64" x="184" y="1620.1171">SystemInit</text><path d="M124,1672.7533 L134,1672.7533 C149,1672.7533 149,1613.6332 164,1613.6332 L174,1613.6332 " fill="none" style="stroke:#181818;stroke-width:1.0;"/><rect fill="#F1F1F1" height="39.1201" rx="12.5" ry="12.5" style="stroke:#181818;stroke-width:1.5;" width="133" x="174" y="1653.1932"/><text fill="#000000" font-family="sans-serif" font-size="14" lengthAdjust="spacing" textLength="113" x="184" y="1679.2372">LoopCopyDataInit</text><rect fill="#F1F1F1" height="39.1201" rx="12.5" ry="12.5" style="stroke:#181818;stroke-width:1.5;" width="101" x="357" y="1594.0731"/><text fill="#000000" font-family="sans-serif" font-size="14" lengthAdjust="spacing" textLength="81" x="367" y="1620.1171">CopyDataInit</text><path d="M307,1672.7533 L317,1672.7533 C332,1672.7533 332,1613.6332 347,1613.6332 L357,1613.6332 " fill="none" style="stroke:#181818;stroke-width:1.0;"/><rect fill="#F1F1F1" height="39.1201" rx="12.5" ry="12.5" style="stroke:#181818;stroke-width:1.5;" width="121" x="357" y="1653.1932"/><text fill="#000000" font-family="sans-serif" font-size="14" lengthAdjust="spacing" textLength="101" x="367" y="1679.2372">LoopFillZerobss</text><rect fill="#F1F1F1" height="39.1201" rx="12.5" ry="12.5" style="stroke:#181818;stroke-width:1.5;" width="89" x="528" y="374.7207"/><text fill="#000000" font-family="sans-serif" font-size="14" lengthAdjust="spacing" textLength="69" x="538" y="400.7646">FillZerobss</text><path d="M478,1672.7533 L488,1672.7533 C503,1672.7533 503,394.2808 518,394.2808 L528,394.2808 " fill="none" style="stroke:#181818;stroke-width:1.0;"/><rect fill="#F1F1F1" height="39.1201" rx="12.5" ry="12.5" style="stroke:#181818;stroke-width:1.5;" width="124" x="528" y="433.8408"/><text fill="#000000" font-family="sans-serif" font-size="14" lengthAdjust="spacing" textLength="104" x="538" y="459.8848">__libc_init_array</text><rect fill="#F1F1F1" height="39.1201" rx="12.5" ry="12.5" style="stroke:#181818;stroke-width:1.5;" width="46" x="702" y="433.8408"/><text fill="#000000" font-family="sans-serif" font-size="14" lengthAdjust="spacing" textLength="26" x="712" y="459.8848">_init</text><path d="M652,453.4009 L662,453.4009 C677,453.4009 677,453.4009 692,453.4009 L702,453.4009 " fill="none" style="stroke:#181818;stroke-width:1.0;"/><path d="M478,1672.7533 L488,1672.7533 C503,1672.7533 503,453.4009 518,453.4009 L528,453.4009 " fill="none" style="stroke:#181818;stroke-width:1.0;"/><rect fill="#F1F1F1" height="39.1201" rx="12.5" ry="12.5" style="stroke:#181818;stroke-width:1.5;" width="50" x="528" y="1712.3134"/><text fill="#000000" font-family="sans-serif" font-size="14" lengthAdjust="spacing" textLength="30" x="538" y="1738.3573">main</text><rect fill="#F1F1F1" height="39.1201" rx="12.5" ry="12.5" style="stroke:#181818;stroke-width:1.5;" width="72" x="628" y="574.2511"/><text fill="#000000" font-family="sans-serif" font-size="14" lengthAdjust="spacing" textLength="52" x="638" y="600.295">HAL_Init</text><rect fill="#F1F1F1" height="39.1201" rx="12.5" ry="12.5" style="stroke:#181818;stroke-width:1.5;" width="217" x="750" y="492.9609"/><text fill="#000000" font-family="sans-serif" font-size="14" lengthAdjust="spacing" textLength="197" x="760" y="519.0049">HAL_NVIC_SetPriorityGrouping</text><path d="M700,593.8112 L710,593.8112 C725,593.8112 725,512.521 740,512.521 L750,512.521 " fill="none" style="stroke:#181818;stroke-width:1.0;"/><rect fill="#F1F1F1" height="39.1201" rx="12.5" ry="12.5" style="stroke:#181818;stroke-width:1.5;" width="98" x="750" y="596.4211"/><text fill="#000000" font-family="sans-serif" font-size="14" lengthAdjust="spacing" textLength="78" x="760" y="622.4651">HAL_InitTick</text><rect fill="#F1F1F1" height="39.1201" rx="12.5" ry="12.5" style="stroke:#181818;stroke-width:1.5;" width="161" x="898" y="552.0811"/><text fill="#000000" font-family="sans-serif" font-size="14" lengthAdjust="spacing" textLength="141" x="908" y="578.125">HAL_SYSTICK_Config</text><path d="M848,615.9812 L858,615.9812 C873,615.9812 873,571.6411 888,571.6411 L898,571.6411 " fill="none" style="stroke:#181818;stroke-width:1.0;"/><rect fill="#F1F1F1" height="39.1201" rx="12.5" ry="12.5" style="stroke:#181818;stroke-width:1.5;" width="158" x="898" y="611.2012"/><text fill="#000000" font-family="sans-serif" font-size="14" lengthAdjust="spacing" textLength="138" x="908" y="637.2451">HAL_NVIC_SetPriority</text><rect fill="#F1F1F1" height="39.1201" rx="12.5" ry="12.5" style="stroke:#181818;stroke-width:1.5;" width="151" x="1106" y="581.6411"/><text fill="#000000" font-family="sans-serif" font-size="14" lengthAdjust="spacing" textLength="131" x="1116" y="607.6851">NVIC_EncodePriority</text><path d="M1056,630.7612 L1066,630.7612 C1081,630.7612 1081,601.2012 1096,601.2012 L1106,601.2012 " fill="none" style="stroke:#181818;stroke-width:1.0;"/><rect fill="#F1F1F1" height="39.1201" rx="12.5" ry="12.5" style="stroke:#181818;stroke-width:1.5;" width="140" x="1106" y="640.7612"/><text fill="#000000" font-family="sans-serif" font-size="14" lengthAdjust="spacing" textLength="120" x="1116" y="666.8052">__NVIC_SetPriority</text><path d="M1056,630.7612 L1066,630.7612 C1081,630.7612 1081,660.3213 1096,660.3213 L1106,660.3213 " fill="none" style="stroke:#181818;stroke-width:1.0;"/><path d="M848,615.9812 L858,615.9812 C873,615.9812 873,630.7612 888,630.7612 L898,630.7612 " fill="none" style="stroke:#181818;stroke-width:1.0;"/><path d="M700,593.8112 L710,593.8112 C725,593.8112 725,615.9812 740,615.9812 L750,615.9812 " fill="none" style="stroke:#181818;stroke-width:1.0;"/><rect fill="#F1F1F1" height="39.1201" rx="12.5" ry="12.5" style="stroke:#181818;stroke-width:1.5;" width="98" x="750" y="655.5413"/><text fill="#000000" font-family="sans-serif" font-size="14" lengthAdjust="spacing" textLength="78" x="760" y="681.5852">HAL_MspInit</text><path d="M700,593.8112 L710,593.8112 C725,593.8112 725,675.1013 740,675.1013 L750,675.1013 " fill="none" style="stroke:#181818;stroke-width:1.0;"/><path d="M578,1731.8734 L588,1731.8734 C603,1731.8734 603,593.8112 618,593.8112 L628,593.8112 " fill="none" style="stroke:#181818;stroke-width:1.0;"/><rect fill="#F1F1F1" height="39.1201" rx="12.5" ry="12.5" style="stroke:#181818;stroke-width:1.5;" width="150" x="628" y="1586.6831"/><text fill="#000000" font-family="sans-serif" font-size="14" lengthAdjust="spacing" textLength="130" x="638" y="1612.7271">SystemClock_Config</text><rect fill="#F1F1F1" height="39.1201" rx="12.5" ry="12.5" style="stroke:#181818;stroke-width:1.5;" width="69" x="828" y="1364.9827"/><text fill="#000000" font-family="sans-serif" font-size="14" lengthAdjust="spacing" textLength="49" x="838" y="1391.0266">memset</text><path d="M778,1606.2432 L788,1606.2432 C803,1606.2432 803,1384.5427 818,1384.5427 L828,1384.5427 " fill="none" style="stroke:#181818;stroke-width:1.0;"/><rect fill="#F1F1F1" height="39.1201" rx="12.5" ry="12.5" style="stroke:#181818;stroke-width:1.5;" width="158" x="828" y="1424.1028"/><text fill="#000000" font-family="sans-serif" font-size="14" lengthAdjust="spacing" textLength="138" x="838" y="1450.1467">HAL_RCC_OscConfig</text><rect fill="#F1F1F1" height="39.1201" rx="12.5" ry="12.5" style="stroke:#181818;stroke-width:1.5;" width="103" x="1036" y="714.6614"/><text fill="#000000" font-family="sans-serif" font-size="14" lengthAdjust="spacing" textLength="83" x="1046" y="740.7053">HAL_GetTick</text><path d="M986,1443.6628 L996,1443.6628 C1011,1443.6628 1011,734.2214 1026,734.2214 L1036,734.2214 " fill="none" style="stroke:#181818;stroke-width:1.0;"/><rect fill="#F1F1F1" height="39.1201" rx="12.5" ry="12.5" style="stroke:#181818;stroke-width:1.5;" width="103" x="1036" y="773.7815"/><text fill="#000000" font-family="sans-serif" font-size="14" lengthAdjust="spacing" textLength="83" x="1046" y="799.8254">HAL_GetTick</text><path d="M986,1443.6628 L996,1443.6628 C1011,1443.6628 1011,793.3416 1026,793.3416 L1036,793.3416 " fill="none" style="stroke:#181818;stroke-width:1.0;"/><rect fill="#F1F1F1" height="39.1201" rx="12.5" ry="12.5" style="stroke:#181818;stroke-width:1.5;" width="103" x="1036" y="832.9016"/><text fill="#000000" font-family="sans-serif" font-size="14" lengthAdjust="spacing" textLength="83" x="1046" y="858.9456">HAL_GetTick</text><path d="M986,1443.6628 L996,1443.6628 C1011,1443.6628 1011,852.4617 1026,852.4617 L1036,852.4617 " fill="none" style="stroke:#181818;stroke-width:1.0;"/><rect fill="#F1F1F1" height="39.1201" rx="12.5" ry="12.5" style="stroke:#181818;stroke-width:1.5;" width="103" x="1036" y="892.0217"/><text fill="#000000" font-family="sans-serif" font-size="14" lengthAdjust="spacing" textLength="83" x="1046" y="918.0657">HAL_GetTick</text><path d="M986,1443.6628 L996,1443.6628 C1011,1443.6628 1011,911.5818 1026,911.5818 L1036,911.5818 " fill="none" style="stroke:#181818;stroke-width:1.0;"/><rect fill="#F1F1F1" height="39.1201" rx="12.5" ry="12.5" style="stroke:#181818;stroke-width:1.5;" width="103" x="1036" y="951.1418"/><text fill="#000000" font-family="sans-serif" font-size="14" lengthAdjust="spacing" textLength="83" x="1046" y="977.1858">HAL_GetTick</text><path d="M986,1443.6628 L996,1443.6628 C1011,1443.6628 1011,970.7019 1026,970.7019 L1036,970.7019 " fill="none" style="stroke:#181818;stroke-width:1.0;"/><rect fill="#F1F1F1" height="39.1201" rx="12.5" ry="12.5" style="stroke:#181818;stroke-width:1.5;" width="103" x="1036" y="1010.262"/><text fill="#000000" font-family="sans-serif" font-size="14" lengthAdjust="spacing" textLength="83" x="1046" y="1036.3059">HAL_GetTick</text><path d="M986,1443.6628 L996,1443.6628 C1011,1443.6628 1011,1029.822 1026,1029.822 L1036,1029.822 " fill="none" style="stroke:#181818;stroke-width:1.0;"/><rect fill="#F1F1F1" height="39.1201" rx="12.5" ry="12.5" style="stroke:#181818;stroke-width:1.5;" width="103" x="1036" y="1069.3821"/><text fill="#000000" font-family="sans-serif" font-size="14" lengthAdjust="spacing" textLength="83" x="1046" y="1095.426">HAL_GetTick</text><path d="M986,1443.6628 L996,1443.6628 C1011,1443.6628 1011,1088.9421 1026,1088.9421 L1036,1088.9421 " fill="none" style="stroke:#181818;stroke-width:1.0;"/><rect fill="#F1F1F1" height="39.1201" rx="12.5" ry="12.5" style="stroke:#181818;stroke-width:1.5;" width="103" x="1036" y="1128.5022"/><text fill="#000000" font-family="sans-serif" font-size="14" lengthAdjust="spacing" textLength="83" x="1046" y="1154.5461">HAL_GetTick</text><path d="M986,1443.6628 L996,1443.6628 C1011,1443.6628 1011,1148.0623 1026,1148.0623 L1036,1148.0623 " fill="none" style="stroke:#181818;stroke-width:1.0;"/><rect fill="#F1F1F1" height="39.1201" rx="12.5" ry="12.5" style="stroke:#181818;stroke-width:1.5;" width="103" x="1036" y="1187.6223"/><text fill="#000000" font-family="sans-serif" font-size="14" lengthAdjust="spacing" textLength="83" x="1046" y="1213.6663">HAL_GetTick</text><path d="M986,1443.6628 L996,1443.6628 C1011,1443.6628 1011,1207.1824 1026,1207.1824 L1036,1207.1824 " fill="none" style="stroke:#181818;stroke-width:1.0;"/><rect fill="#F1F1F1" height="39.1201" rx="12.5" ry="12.5" style="stroke:#181818;stroke-width:1.5;" width="103" x="1036" y="1246.7424"/><text fill="#000000" font-family="sans-serif" font-size="14" lengthAdjust="spacing" textLength="83" x="1046" y="1272.7864">HAL_GetTick</text><path d="M986,1443.6628 L996,1443.6628 C1011,1443.6628 1011,1266.3025 1026,1266.3025 L1036,1266.3025 " fill="none" style="stroke:#181818;stroke-width:1.0;"/><rect fill="#F1F1F1" height="39.1201" rx="12.5" ry="12.5" style="stroke:#181818;stroke-width:1.5;" width="94" x="1036" y="1305.8625"/><text fill="#000000" font-family="sans-serif" font-size="14" lengthAdjust="spacing" textLength="74" x="1046" y="1331.9065">RCC_Delay</text><path d="M986,1443.6628 L996,1443.6628 C1011,1443.6628 1011,1325.4226 1026,1325.4226 L1036,1325.4226 " fill="none" style="stroke:#181818;stroke-width:1.0;"/><rect fill="#F1F1F1" height="39.1201" rx="12.5" ry="12.5" style="stroke:#181818;stroke-width:1.5;" width="103" x="1036" y="1364.9827"/><text fill="#000000" font-family="sans-serif" font-size="14" lengthAdjust="spacing" textLength="83" x="1046" y="1391.0266">HAL_GetTick</text><path d="M986,1443.6628 L996,1443.6628 C1011,1443.6628 1011,1384.5427 1026,1384.5427 L1036,1384.5427 " fill="none" style="stroke:#181818;stroke-width:1.0;"/><rect fill="#F1F1F1" height="39.1201" rx="12.5" ry="12.5" style="stroke:#181818;stroke-width:1.5;" width="103" x="1036" y="1424.1028"/><text fill="#000000" font-family="sans-serif" font-size="14" lengthAdjust="spacing" textLength="83" x="1046" y="1450.1467">HAL_GetTick</text><path d="M986,1443.6628 L996,1443.6628 C1011,1443.6628 1011,1443.6628 1026,1443.6628 L1036,1443.6628 " fill="none" style="stroke:#181818;stroke-width:1.0;"/><rect fill="#F1F1F1" height="39.1201" rx="12.5" ry="12.5" style="stroke:#181818;stroke-width:1.5;" width="103" x="1036" y="1483.2229"/><text fill="#000000" font-family="sans-serif" font-size="14" lengthAdjust="spacing" textLength="83" x="1046" y="1509.2668">HAL_GetTick</text><path d="M986,1443.6628 L996,1443.6628 C1011,1443.6628 1011,1502.783 1026,1502.783 L1036,1502.783 " fill="none" style="stroke:#181818;stroke-width:1.0;"/><rect fill="#F1F1F1" height="39.1201" rx="12.5" ry="12.5" style="stroke:#181818;stroke-width:1.5;" width="103" x="1036" y="1542.343"/><text fill="#000000" font-family="sans-serif" font-size="14" lengthAdjust="spacing" textLength="83" x="1046" y="1568.387">HAL_GetTick</text><path d="M986,1443.6628 L996,1443.6628 C1011,1443.6628 1011,1561.9031 1026,1561.9031 L1036,1561.9031 " fill="none" style="stroke:#181818;stroke-width:1.0;"/><rect fill="#F1F1F1" height="39.1201" rx="12.5" ry="12.5" style="stroke:#181818;stroke-width:1.5;" width="103" x="1036" y="1601.4631"/><text fill="#000000" font-family="sans-serif" font-size="14" lengthAdjust="spacing" textLength="83" x="1046" y="1627.5071">HAL_GetTick</text><path d="M986,1443.6628 L996,1443.6628 C1011,1443.6628 1011,1621.0232 1026,1621.0232 L1036,1621.0232 " fill="none" style="stroke:#181818;stroke-width:1.0;"/><rect fill="#F1F1F1" height="39.1201" rx="12.5" ry="12.5" style="stroke:#181818;stroke-width:1.5;" width="103" x="1036" y="1660.5833"/><text fill="#000000" font-family="sans-serif" font-size="14" lengthAdjust="spacing" textLength="83" x="1046" y="1686.6272">HAL_GetTick</text><path d="M986,1443.6628 L996,1443.6628 C1011,1443.6628 1011,1680.1433 1026,1680.1433 L1036,1680.1433 " fill="none" style="stroke:#181818;stroke-width:1.0;"/><rect fill="#F1F1F1" height="39.1201" rx="12.5" ry="12.5" style="stroke:#181818;stroke-width:1.5;" width="103" x="1036" y="1719.7034"/><text fill="#000000" font-family="sans-serif" font-size="14" lengthAdjust="spacing" textLength="83" x="1046" y="1745.7473">HAL_GetTick</text><path d="M986,1443.6628 L996,1443.6628 C1011,1443.6628 1011,1739.2634 1026,1739.2634 L1036,1739.2634 " fill="none" style="stroke:#181818;stroke-width:1.0;"/><rect fill="#F1F1F1" height="39.1201" rx="12.5" ry="12.5" style="stroke:#181818;stroke-width:1.5;" width="103" x="1036" y="1778.8235"/><text fill="#000000" font-family="sans-serif" font-size="14" lengthAdjust="spacing" textLength="83" x="1046" y="1804.8674">HAL_GetTick</text><path d="M986,1443.6628 L996,1443.6628 C1011,1443.6628 1011,1798.3835 1026,1798.3835 L1036,1798.3835 " fill="none" style="stroke:#181818;stroke-width:1.0;"/><rect fill="#F1F1F1" height="39.1201" rx="12.5" ry="12.5" style="stroke:#181818;stroke-width:1.5;" width="103" x="1036" y="1837.9436"/><text fill="#000000" font-family="sans-serif" font-size="14" lengthAdjust="spacing" textLength="83" x="1046" y="1863.9875">HAL_GetTick</text><path d="M986,1443.6628 L996,1443.6628 C1011,1443.6628 1011,1857.5037 1026,1857.5037 L1036,1857.5037 " fill="none" style="stroke:#181818;stroke-width:1.0;"/><rect fill="#F1F1F1" height="39.1201" rx="12.5" ry="12.5" style="stroke:#181818;stroke-width:1.5;" width="103" x="1036" y="1897.0637"/><text fill="#000000" font-family="sans-serif" font-size="14" lengthAdjust="spacing" textLength="83" x="1046" y="1923.1077">HAL_GetTick</text><path d="M986,1443.6628 L996,1443.6628 C1011,1443.6628 1011,1916.6238 1026,1916.6238 L1036,1916.6238 " fill="none" style="stroke:#181818;stroke-width:1.0;"/><rect fill="#F1F1F1" height="39.1201" rx="12.5" ry="12.5" style="stroke:#181818;stroke-width:1.5;" width="103" x="1036" y="1956.1838"/><text fill="#000000" font-family="sans-serif" font-size="14" lengthAdjust="spacing" textLength="83" x="1046" y="1982.2278">HAL_GetTick</text><path d="M986,1443.6628 L996,1443.6628 C1011,1443.6628 1011,1975.7439 1026,1975.7439 L1036,1975.7439 " fill="none" style="stroke:#181818;stroke-width:1.0;"/><rect fill="#F1F1F1" height="39.1201" rx="12.5" ry="12.5" style="stroke:#181818;stroke-width:1.5;" width="103" x="1036" y="2015.304"/><text fill="#000000" font-family="sans-serif" font-size="14" lengthAdjust="spacing" textLength="83" x="1046" y="2041.3479">HAL_GetTick</text><path d="M986,1443.6628 L996,1443.6628 C1011,1443.6628 1011,2034.864 1026,2034.864 L1036,2034.864 " fill="none" style="stroke:#181818;stroke-width:1.0;"/><rect fill="#F1F1F1" height="39.1201" rx="12.5" ry="12.5" style="stroke:#181818;stroke-width:1.5;" width="103" x="1036" y="2074.4241"/><text fill="#000000" font-family="sans-serif" font-size="14" lengthAdjust="spacing" textLength="83" x="1046" y="2100.468">HAL_GetTick</text><path d="M986,1443.6628 L996,1443.6628 C1011,1443.6628 1011,2093.9841 1026,2093.9841 L1036,2093.9841 " fill="none" style="stroke:#181818;stroke-width:1.0;"/><rect fill="#F1F1F1" height="39.1201" rx="12.5" ry="12.5" style="stroke:#181818;stroke-width:1.5;" width="103" x="1036" y="2133.5442"/><text fill="#000000" font-family="sans-serif" font-size="14" lengthAdjust="spacing" textLength="83" x="1046" y="2159.5881">HAL_GetTick</text><path d="M986,1443.6628 L996,1443.6628 C1011,1443.6628 1011,2153.1042 1026,2153.1042 L1036,2153.1042 " fill="none" style="stroke:#181818;stroke-width:1.0;"/><path d="M778,1606.2432 L788,1606.2432 C803,1606.2432 803,1443.6628 818,1443.6628 L828,1443.6628 " fill="none" style="stroke:#181818;stroke-width:1.0;"/><rect fill="#F1F1F1" height="39.1201" rx="12.5" ry="12.5" style="stroke:#181818;stroke-width:1.5;" width="168" x="828" y="2325.6846"/><text fill="#000000" font-family="sans-serif" font-size="14" lengthAdjust="spacing" textLength="148" x="838" y="2351.7285">HAL_RCC_ClockConfig</text><rect fill="#F1F1F1" height="39.1201" rx="12.5" ry="12.5" style="stroke:#181818;stroke-width:1.5;" width="103" x="1046" y="2192.6643"/><text fill="#000000" font-family="sans-serif" font-size="14" lengthAdjust="spacing" textLength="83" x="1056" y="2218.7083">HAL_GetTick</text><path d="M996,2345.2446 L1006,2345.2446 C1021,2345.2446 1021,2212.2244 1036,2212.2244 L1046,2212.2244 " fill="none" style="stroke:#181818;stroke-width:1.0;"/><rect fill="#F1F1F1" height="39.1201" rx="12.5" ry="12.5" style="stroke:#181818;stroke-width:1.5;" width="103" x="1046" y="2251.7844"/><text fill="#000000" font-family="sans-serif" font-size="14" lengthAdjust="spacing" textLength="83" x="1056" y="2277.8284">HAL_GetTick</text><path d="M996,2345.2446 L1006,2345.2446 C1021,2345.2446 1021,2271.3445 1036,2271.3445 L1046,2271.3445 " fill="none" style="stroke:#181818;stroke-width:1.0;"/><rect fill="#F1F1F1" height="39.1201" rx="12.5" ry="12.5" style="stroke:#181818;stroke-width:1.5;" width="203" x="1046" y="2310.9045"/><text fill="#000000" font-family="sans-serif" font-size="14" lengthAdjust="spacing" textLength="183" x="1056" y="2336.9485">HAL_RCC_GetSysClockFreq</text><path d="M996,2345.2446 L1006,2345.2446 C1021,2345.2446 1021,2330.4646 1036,2330.4646 L1046,2330.4646 " fill="none" style="stroke:#181818;stroke-width:1.0;"/><rect fill="#F1F1F1" height="39.1201" rx="12.5" ry="12.5" style="stroke:#181818;stroke-width:1.5;" width="98" x="1046" y="2414.3647"/><text fill="#000000" font-family="sans-serif" font-size="14" lengthAdjust="spacing" textLength="78" x="1056" y="2440.4087">HAL_InitTick</text><rect fill="#F1F1F1" height="39.1201" rx="12.5" ry="12.5" style="stroke:#181818;stroke-width:1.5;" width="161" x="1194" y="2370.0247"/><text fill="#000000" font-family="sans-serif" font-size="14" lengthAdjust="spacing" textLength="141" x="1204" y="2396.0686">HAL_SYSTICK_Config</text><path d="M1144,2433.9248 L1154,2433.9248 C1169,2433.9248 1169,2389.5847 1184,2389.5847 L1194,2389.5847 " fill="none" style="stroke:#181818;stroke-width:1.0;"/><rect fill="#F1F1F1" height="39.1201" rx="12.5" ry="12.5" style="stroke:#181818;stroke-width:1.5;" width="158" x="1194" y="2429.1448"/><text fill="#000000" font-family="sans-serif" font-size="14" lengthAdjust="spacing" textLength="138" x="1204" y="2455.1887">HAL_NVIC_SetPriority</text><rect fill="#F1F1F1" height="39.1201" rx="12.5" ry="12.5" style="stroke:#181818;stroke-width:1.5;" width="151" x="1402" y="2399.5847"/><text fill="#000000" font-family="sans-serif" font-size="14" lengthAdjust="spacing" textLength="131" x="1412" y="2425.6287">NVIC_EncodePriority</text><path d="M1352,2448.7048 L1362,2448.7048 C1377,2448.7048 1377,2419.1448 1392,2419.1448 L1402,2419.1448 " fill="none" style="stroke:#181818;stroke-width:1.0;"/><rect fill="#F1F1F1" height="39.1201" rx="12.5" ry="12.5" style="stroke:#181818;stroke-width:1.5;" width="140" x="1402" y="2458.7048"/><text fill="#000000" font-family="sans-serif" font-size="14" lengthAdjust="spacing" textLength="120" x="1412" y="2484.7488">__NVIC_SetPriority</text><path d="M1352,2448.7048 L1362,2448.7048 C1377,2448.7048 1377,2478.2649 1392,2478.2649 L1402,2478.2649 " fill="none" style="stroke:#181818;stroke-width:1.0;"/><path d="M1144,2433.9248 L1154,2433.9248 C1169,2433.9248 1169,2448.7048 1184,2448.7048 L1194,2448.7048 " fill="none" style="stroke:#181818;stroke-width:1.0;"/><path d="M996,2345.2446 L1006,2345.2446 C1021,2345.2446 1021,2433.9248 1036,2433.9248 L1046,2433.9248 " fill="none" style="stroke:#181818;stroke-width:1.0;"/><path d="M778,1606.2432 L788,1606.2432 C803,1606.2432 803,2345.2446 818,2345.2446 L828,2345.2446 " fill="none" style="stroke:#181818;stroke-width:1.0;"/><rect fill="#F1F1F1" height="39.1201" rx="12.5" ry="12.5" style="stroke:#181818;stroke-width:1.5;" width="109" x="828" y="2384.8047"/><text fill="#000000" font-family="sans-serif" font-size="14" lengthAdjust="spacing" textLength="89" x="838" y="2410.8486">Error_Handler</text><path d="M778,1606.2432 L788,1606.2432 C803,1606.2432 803,2404.3647 818,2404.3647 L828,2404.3647 " fill="none" style="stroke:#181818;stroke-width:1.0;"/><rect fill="#F1F1F1" height="39.1201" rx="12.5" ry="12.5" style="stroke:#181818;stroke-width:1.5;" width="109" x="828" y="2443.9248"/><text fill="#000000" font-family="sans-serif" font-size="14" lengthAdjust="spacing" textLength="89" x="838" y="2469.9688">Error_Handler</text><path d="M778,1606.2432 L788,1606.2432 C803,1606.2432 803,2463.4849 818,2463.4849 L828,2463.4849 " fill="none" style="stroke:#181818;stroke-width:1.0;"/><path d="M578,1731.8734 L588,1731.8734 C603,1731.8734 603,1606.2432 618,1606.2432 L628,1606.2432 " fill="none" style="stroke:#181818;stroke-width:1.0;"/><rect fill="#F1F1F1" height="39.1201" rx="12.5" ry="12.5" style="stroke:#181818;stroke-width:1.5;" width="107" x="628" y="2547.385"/><text fill="#000000" font-family="sans-serif" font-size="14" lengthAdjust="spacing" textLength="87" x="638" y="2573.429">MX_GPIO_Init</text><rect fill="#F1F1F1" height="39.1201" rx="12.5" ry="12.5" style="stroke:#181818;stroke-width:1.5;" width="149" x="785" y="2517.825"/><text fill="#000000" font-family="sans-serif" font-size="14" lengthAdjust="spacing" textLength="129" x="795" y="2543.8689">HAL_GPIO_WritePin</text><path d="M735,2566.9451 L745,2566.9451 C760,2566.9451 760,2537.385 775,2537.385 L785,2537.385 " fill="none" style="stroke:#181818;stroke-width:1.0;"/><rect fill="#F1F1F1" height="39.1201" rx="12.5" ry="12.5" style="stroke:#181818;stroke-width:1.5;" width="114" x="785" y="2576.9451"/><text fill="#000000" font-family="sans-serif" font-size="14" lengthAdjust="spacing" textLength="94" x="795" y="2602.989">HAL_GPIO_Init</text><path d="M735,2566.9451 L745,2566.9451 C760,2566.9451 760,2596.5051 775,2596.5051 L785,2596.5051 " fill="none" style="stroke:#181818;stroke-width:1.0;"/><path d="M578,1731.8734 L588,1731.8734 C603,1731.8734 603,2566.9451 618,2566.9451 L628,2566.9451 " fill="none" style="stroke:#181818;stroke-width:1.0;"/><rect fill="#F1F1F1" height="39.1201" rx="12.5" ry="12.5" style="stroke:#181818;stroke-width:1.5;" width="96" x="628" y="2783.8655"/><text fill="#000000" font-family="sans-serif" font-size="14" lengthAdjust="spacing" textLength="76" x="638" y="2809.9094">my_function</text><rect fill="#F1F1F1" height="39.1201" rx="12.5" ry="12.5" style="stroke:#181818;stroke-width:1.5;" width="149" x="774" y="2636.0652"/><text fill="#000000" font-family="sans-serif" font-size="14" lengthAdjust="spacing" textLength="129" x="784" y="2662.1091">HAL_GPIO_WritePin</text><path d="M724,2803.4255 L734,2803.4255 C749,2803.4255 749,2655.6252 764,2655.6252 L774,2655.6252 " fill="none" style="stroke:#181818;stroke-width:1.0;"/><rect fill="#F1F1F1" height="39.1201" rx="12.5" ry="12.5" style="stroke:#181818;stroke-width:1.5;" width="90" x="774" y="2724.7454"/><text fill="#000000" font-family="sans-serif" font-size="14" lengthAdjust="spacing" textLength="70" x="784" y="2750.7893">HAL_Delay</text><rect fill="#F1F1F1" height="39.1201" rx="12.5" ry="12.5" style="stroke:#181818;stroke-width:1.5;" width="103" x="914" y="2695.1853"/><text fill="#000000" font-family="sans-serif" font-size="14" lengthAdjust="spacing" textLength="83" x="924" y="2721.2292">HAL_GetTick</text><path d="M864,2744.3054 L874,2744.3054 C889,2744.3054 889,2714.7454 904,2714.7454 L914,2714.7454 " fill="none" style="stroke:#181818;stroke-width:1.0;"/><rect fill="#F1F1F1" height="39.1201" rx="12.5" ry="12.5" style="stroke:#181818;stroke-width:1.5;" width="103" x="914" y="2754.3054"/><text fill="#000000" font-family="sans-serif" font-size="14" lengthAdjust="spacing" textLength="83" x="924" y="2780.3494">HAL_GetTick</text><path d="M864,2744.3054 L874,2744.3054 C889,2744.3054 889,2773.8655 904,2773.8655 L914,2773.8655 " fill="none" style="stroke:#181818;stroke-width:1.0;"/><path d="M724,2803.4255 L734,2803.4255 C749,2803.4255 749,2744.3054 764,2744.3054 L774,2744.3054 " fill="none" style="stroke:#181818;stroke-width:1.0;"/><rect fill="#F1F1F1" height="39.1201" rx="12.5" ry="12.5" style="stroke:#181818;stroke-width:1.5;" width="149" x="774" y="2813.4255"/><text fill="#000000" font-family="sans-serif" font-size="14" lengthAdjust="spacing" textLength="129" x="784" y="2839.4695">HAL_GPIO_WritePin</text><path d="M724,2803.4255 L734,2803.4255 C749,2803.4255 749,2832.9856 764,2832.9856 L774,2832.9856 " fill="none" style="stroke:#181818;stroke-width:1.0;"/><rect fill="#F1F1F1" height="39.1201" rx="12.5" ry="12.5" style="stroke:#181818;stroke-width:1.5;" width="90" x="774" y="2902.1057"/><text fill="#000000" font-family="sans-serif" font-size="14" lengthAdjust="spacing" textLength="70" x="784" y="2928.1497">HAL_Delay</text><rect fill="#F1F1F1" height="39.1201" rx="12.5" ry="12.5" style="stroke:#181818;stroke-width:1.5;" width="103" x="914" y="2872.5457"/><text fill="#000000" font-family="sans-serif" font-size="14" lengthAdjust="spacing" textLength="83" x="924" y="2898.5896">HAL_GetTick</text><path d="M864,2921.6658 L874,2921.6658 C889,2921.6658 889,2892.1057 904,2892.1057 L914,2892.1057 " fill="none" style="stroke:#181818;stroke-width:1.0;"/><rect fill="#F1F1F1" height="39.1201" rx="12.5" ry="12.5" style="stroke:#181818;stroke-width:1.5;" width="103" x="914" y="2931.6658"/><text fill="#000000" font-family="sans-serif" font-size="14" lengthAdjust="spacing" textLength="83" x="924" y="2957.7097">HAL_GetTick</text><path d="M864,2921.6658 L874,2921.6658 C889,2921.6658 889,2951.2258 904,2951.2258 L914,2951.2258 " fill="none" style="stroke:#181818;stroke-width:1.0;"/><path d="M724,2803.4255 L734,2803.4255 C749,2803.4255 749,2921.6658 764,2921.6658 L774,2921.6658 " fill="none" style="stroke:#181818;stroke-width:1.0;"/><path d="M578,1731.8734 L588,1731.8734 C603,1731.8734 603,2803.4255 618,2803.4255 L628,2803.4255 " fill="none" style="stroke:#181818;stroke-width:1.0;"/><path d="M478,1672.7533 L488,1672.7533 C503,1672.7533 503,1731.8734 518,1731.8734 L528,1731.8734 " fill="none" style="stroke:#181818;stroke-width:1.0;"/><path d="M307,1672.7533 L317,1672.7533 C332,1672.7533 332,1672.7533 347,1672.7533 L357,1672.7533 " fill="none" style="stroke:#181818;stroke-width:1.0;"/><path d="M124,1672.7533 L134,1672.7533 C149,1672.7533 149,1672.7533 164,1672.7533 L174,1672.7533 " fill="none" style="stroke:#181818;stroke-width:1.0;"/><!--MD5=[08d0ffc7ac002e760ba8f6266fe2651d]
@startmindmap
* __do_global_dtors_aux
** deregister_tm_clones
* frame_dummy
** register_tm_clones
* SVC_Handler
* DebugMon_Handler
* PendSV_Handler
* SysTick_Handler
** HAL_IncTick
* Reset_Handler
** SystemInit
** LoopCopyDataInit
*** CopyDataInit
*** LoopFillZerobss
**** FillZerobss
**** __libc_init_array
***** _init
**** main
***** HAL_Init
****** HAL_NVIC_SetPriorityGrouping
****** HAL_InitTick
******* HAL_SYSTICK_Config
******* HAL_NVIC_SetPriority
******** NVIC_EncodePriority
******** __NVIC_SetPriority
****** HAL_MspInit
***** SystemClock_Config
****** memset
****** HAL_RCC_OscConfig
******* HAL_GetTick
******* HAL_GetTick
******* HAL_GetTick
******* HAL_GetTick
******* HAL_GetTick
******* HAL_GetTick
******* HAL_GetTick
******* HAL_GetTick
******* HAL_GetTick
******* HAL_GetTick
******* RCC_Delay
******* HAL_GetTick
******* HAL_GetTick
******* HAL_GetTick
******* HAL_GetTick
******* HAL_GetTick
******* HAL_GetTick
******* HAL_GetTick
******* HAL_GetTick
******* HAL_GetTick
******* HAL_GetTick
******* HAL_GetTick
******* HAL_GetTick
******* HAL_GetTick
******* HAL_GetTick
****** HAL_RCC_ClockConfig
******* HAL_GetTick
******* HAL_GetTick
******* HAL_RCC_GetSysClockFreq
******* HAL_InitTick
******** HAL_SYSTICK_Config
******** HAL_NVIC_SetPriority
********* NVIC_EncodePriority
********* __NVIC_SetPriority
****** Error_Handler
****** Error_Handler
***** MX_GPIO_Init
****** HAL_GPIO_WritePin
****** HAL_GPIO_Init
***** my_function
****** HAL_GPIO_WritePin
****** HAL_Delay
******* HAL_GetTick
******* HAL_GetTick
****** HAL_GPIO_WritePin
****** HAL_Delay
******* HAL_GetTick
******* HAL_GetTick
@endmindmap

PlantUML version 1.2022.7(Tue Aug 23 01:01:30 CST 2022)
(GPL source distribution)
Java Runtime: Java(TM) SE Runtime Environment
JVM: Java HotSpot(TM) 64-Bit Server VM
Default Encoding: GBK
Language: zh
Country: CN
--></g></svg>