<?xml version="1.0" encoding="UTF-8" standalone="no"?><svg xmlns="http://www.w3.org/2000/svg" xmlns:xlink="http://www.w3.org/1999/xlink" contentStyleType="text/css" height="1041px" preserveAspectRatio="none" style="width:1047px;height:1041px;background:#FFFFFF;" version="1.1" viewBox="0 0 1047 1041" width="1047px" zoomAndPan="magnify"><defs/><g><rect fill="#F1F1F1" height="39.1201" rx="12.5" ry="12.5" style="stroke:#181818;stroke-width:1.5;" width="50" x="10" y="500.351"/><text fill="#000000" font-family="sans-serif" font-size="14" lengthAdjust="spacing" textLength="30" x="20" y="526.3949">main</text><rect fill="#F1F1F1" height="39.1201" rx="12.5" ry="12.5" style="stroke:#181818;stroke-width:1.5;" width="72" x="110" y="101.2902"/><text fill="#000000" font-family="sans-serif" font-size="14" lengthAdjust="spacing" textLength="52" x="120" y="127.3341">HAL_Init</text><rect fill="#F1F1F1" height="39.1201" rx="12.5" ry="12.5" style="stroke:#181818;stroke-width:1.5;" width="217" x="232" y="20"/><text fill="#000000" font-family="sans-serif" font-size="14" lengthAdjust="spacing" textLength="197" x="242" y="46.0439">HAL_NVIC_SetPriorityGrouping</text><path d="M182,120.8502 L192,120.8502 C207,120.8502 207,39.5601 222,39.5601 L232,39.5601 " fill="none" style="stroke:#181818;stroke-width:1.0;"/><rect fill="#F1F1F1" height="39.1201" rx="12.5" ry="12.5" style="stroke:#181818;stroke-width:1.5;" width="98" x="232" y="123.4602"/><text fill="#000000" font-family="sans-serif" font-size="14" lengthAdjust="spacing" textLength="78" x="242" y="149.5042">HAL_InitTick</text><rect fill="#F1F1F1" height="39.1201" rx="12.5" ry="12.5" style="stroke:#181818;stroke-width:1.5;" width="161" x="380" y="79.1201"/><text fill="#000000" font-family="sans-serif" font-size="14" lengthAdjust="spacing" textLength="141" x="390" y="105.1641">HAL_SYSTICK_Config</text><path d="M330,143.0203 L340,143.0203 C355,143.0203 355,98.6802 370,98.6802 L380,98.6802 " fill="none" style="stroke:#181818;stroke-width:1.0;"/><rect fill="#F1F1F1" height="39.1201" rx="12.5" ry="12.5" style="stroke:#181818;stroke-width:1.5;" width="158" x="380" y="138.2402"/><text fill="#000000" font-family="sans-serif" font-size="14" lengthAdjust="spacing" textLength="138" x="390" y="164.2842">HAL_NVIC_SetPriority</text><rect fill="#F1F1F1" height="39.1201" rx="12.5" ry="12.5" style="stroke:#181818;stroke-width:1.5;" width="151" x="588" y="108.6802"/><text fill="#000000" font-family="sans-serif" font-size="14" lengthAdjust="spacing" textLength="131" x="598" y="134.7241">NVIC_EncodePriority</text><path d="M538,157.8003 L548,157.8003 C563,157.8003 563,128.2402 578,128.2402 L588,128.2402 " fill="none" style="stroke:#181818;stroke-width:1.0;"/><rect fill="#F1F1F1" height="39.1201" rx="12.5" ry="12.5" style="stroke:#181818;stroke-width:1.5;" width="140" x="588" y="167.8003"/><text fill="#000000" font-family="sans-serif" font-size="14" lengthAdjust="spacing" textLength="120" x="598" y="193.8442">__NVIC_SetPriority</text><path d="M538,157.8003 L548,157.8003 C563,157.8003 563,187.3604 578,187.3604 L588,187.3604 " fill="none" style="stroke:#181818;stroke-width:1.0;"/><path d="M330,143.0203 L340,143.0203 C355,143.0203 355,157.8003 370,157.8003 L380,157.8003 " fill="none" style="stroke:#181818;stroke-width:1.0;"/><path d="M182,120.8502 L192,120.8502 C207,120.8502 207,143.0203 222,143.0203 L232,143.0203 " fill="none" style="stroke:#181818;stroke-width:1.0;"/><rect fill="#F1F1F1" height="39.1201" rx="12.5" ry="12.5" style="stroke:#181818;stroke-width:1.5;" width="98" x="232" y="182.5803"/><text fill="#000000" font-family="sans-serif" font-size="14" lengthAdjust="spacing" textLength="78" x="242" y="208.6243">HAL_MspInit</text><path d="M182,120.8502 L192,120.8502 C207,120.8502 207,202.1404 222,202.1404 L232,202.1404 " fill="none" style="stroke:#181818;stroke-width:1.0;"/><path d="M60,519.911 L70,519.911 C85,519.911 85,120.8502 100,120.8502 L110,120.8502 " fill="none" style="stroke:#181818;stroke-width:1.0;"/><rect fill="#F1F1F1" height="39.1201" rx="12.5" ry="12.5" style="stroke:#181818;stroke-width:1.5;" width="150" x="110" y="374.7207"/><text fill="#000000" font-family="sans-serif" font-size="14" lengthAdjust="spacing" textLength="130" x="120" y="400.7646">SystemClock_Config</text><rect fill="#F1F1F1" height="39.1201" rx="12.5" ry="12.5" style="stroke:#181818;stroke-width:1.5;" width="69" x="310" y="256.4805"/><text fill="#000000" font-family="sans-serif" font-size="14" lengthAdjust="spacing" textLength="49" x="320" y="282.5244">memset</text><path d="M260,394.2808 L270,394.2808 C285,394.2808 285,276.0405 300,276.0405 L310,276.0405 " fill="none" style="stroke:#181818;stroke-width:1.0;"/><rect fill="#F1F1F1" height="39.1201" rx="12.5" ry="12.5" style="stroke:#181818;stroke-width:1.5;" width="158" x="310" y="315.6006"/><text fill="#000000" font-family="sans-serif" font-size="14" lengthAdjust="spacing" textLength="138" x="320" y="341.6445">HAL_RCC_OscConfig</text><path d="M260,394.2808 L270,394.2808 C285,394.2808 285,335.1606 300,335.1606 L310,335.1606 " fill="none" style="stroke:#181818;stroke-width:1.0;"/><rect fill="#F1F1F1" height="39.1201" rx="12.5" ry="12.5" style="stroke:#181818;stroke-width:1.5;" width="168" x="310" y="374.7207"/><text fill="#000000" font-family="sans-serif" font-size="14" lengthAdjust="spacing" textLength="148" x="320" y="400.7646">HAL_RCC_ClockConfig</text><rect fill="#F1F1F1" height="39.1201" rx="12.5" ry="12.5" style="stroke:#181818;stroke-width:1.5;" width="103" x="528" y="241.7004"/><text fill="#000000" font-family="sans-serif" font-size="14" lengthAdjust="spacing" textLength="83" x="538" y="267.7444">HAL_GetTick</text><path d="M478,394.2808 L488,394.2808 C503,394.2808 503,261.2605 518,261.2605 L528,261.2605 " fill="none" style="stroke:#181818;stroke-width:1.0;"/><rect fill="#F1F1F1" height="39.1201" rx="12.5" ry="12.5" style="stroke:#181818;stroke-width:1.5;" width="103" x="528" y="300.8206"/><text fill="#000000" font-family="sans-serif" font-size="14" lengthAdjust="spacing" textLength="83" x="538" y="326.8645">HAL_GetTick</text><path d="M478,394.2808 L488,394.2808 C503,394.2808 503,320.3806 518,320.3806 L528,320.3806 " fill="none" style="stroke:#181818;stroke-width:1.0;"/><rect fill="#F1F1F1" height="39.1201" rx="12.5" ry="12.5" style="stroke:#181818;stroke-width:1.5;" width="203" x="528" y="359.9407"/><text fill="#000000" font-family="sans-serif" font-size="14" lengthAdjust="spacing" textLength="183" x="538" y="385.9846">HAL_RCC_GetSysClockFreq</text><path d="M478,394.2808 L488,394.2808 C503,394.2808 503,379.5007 518,379.5007 L528,379.5007 " fill="none" style="stroke:#181818;stroke-width:1.0;"/><rect fill="#F1F1F1" height="39.1201" rx="12.5" ry="12.5" style="stroke:#181818;stroke-width:1.5;" width="98" x="528" y="463.4009"/><text fill="#000000" font-family="sans-serif" font-size="14" lengthAdjust="spacing" textLength="78" x="538" y="489.4448">HAL_InitTick</text><rect fill="#F1F1F1" height="39.1201" rx="12.5" ry="12.5" style="stroke:#181818;stroke-width:1.5;" width="161" x="676" y="419.0608"/><text fill="#000000" font-family="sans-serif" font-size="14" lengthAdjust="spacing" textLength="141" x="686" y="445.1047">HAL_SYSTICK_Config</text><path d="M626,482.9609 L636,482.9609 C651,482.9609 651,438.6208 666,438.6208 L676,438.6208 " fill="none" style="stroke:#181818;stroke-width:1.0;"/><rect fill="#F1F1F1" height="39.1201" rx="12.5" ry="12.5" style="stroke:#181818;stroke-width:1.5;" width="158" x="676" y="478.1809"/><text fill="#000000" font-family="sans-serif" font-size="14" lengthAdjust="spacing" textLength="138" x="686" y="504.2249">HAL_NVIC_SetPriority</text><rect fill="#F1F1F1" height="39.1201" rx="12.5" ry="12.5" style="stroke:#181818;stroke-width:1.5;" width="151" x="884" y="448.6208"/><text fill="#000000" font-family="sans-serif" font-size="14" lengthAdjust="spacing" textLength="131" x="894" y="474.6648">NVIC_EncodePriority</text><path d="M834,497.741 L844,497.741 C859,497.741 859,468.1809 874,468.1809 L884,468.1809 " fill="none" style="stroke:#181818;stroke-width:1.0;"/><rect fill="#F1F1F1" height="39.1201" rx="12.5" ry="12.5" style="stroke:#181818;stroke-width:1.5;" width="140" x="884" y="507.741"/><text fill="#000000" font-family="sans-serif" font-size="14" lengthAdjust="spacing" textLength="120" x="894" y="533.7849">__NVIC_SetPriority</text><path d="M834,497.741 L844,497.741 C859,497.741 859,527.301 874,527.301 L884,527.301 " fill="none" style="stroke:#181818;stroke-width:1.0;"/><path d="M626,482.9609 L636,482.9609 C651,482.9609 651,497.741 666,497.741 L676,497.741 " fill="none" style="stroke:#181818;stroke-width:1.0;"/><path d="M478,394.2808 L488,394.2808 C503,394.2808 503,482.9609 518,482.9609 L528,482.9609 " fill="none" style="stroke:#181818;stroke-width:1.0;"/><path d="M260,394.2808 L270,394.2808 C285,394.2808 285,394.2808 300,394.2808 L310,394.2808 " fill="none" style="stroke:#181818;stroke-width:1.0;"/><rect fill="#F1F1F1" height="39.1201" rx="12.5" ry="12.5" style="stroke:#181818;stroke-width:1.5;" width="109" x="310" y="433.8408"/><text fill="#000000" font-family="sans-serif" font-size="14" lengthAdjust="spacing" textLength="89" x="320" y="459.8848">Error_Handler</text><path d="M260,394.2808 L270,394.2808 C285,394.2808 285,453.4009 300,453.4009 L310,453.4009 " fill="none" style="stroke:#181818;stroke-width:1.0;"/><rect fill="#F1F1F1" height="39.1201" rx="12.5" ry="12.5" style="stroke:#181818;stroke-width:1.5;" width="109" x="310" y="492.9609"/><text fill="#000000" font-family="sans-serif" font-size="14" lengthAdjust="spacing" textLength="89" x="320" y="519.0049">Error_Handler</text><path d="M260,394.2808 L270,394.2808 C285,394.2808 285,512.521 300,512.521 L310,512.521 " fill="none" style="stroke:#181818;stroke-width:1.0;"/><path d="M60,519.911 L70,519.911 C85,519.911 85,394.2808 100,394.2808 L110,394.2808 " fill="none" style="stroke:#181818;stroke-width:1.0;"/><rect fill="#F1F1F1" height="39.1201" rx="12.5" ry="12.5" style="stroke:#181818;stroke-width:1.5;" width="107" x="110" y="596.4211"/><text fill="#000000" font-family="sans-serif" font-size="14" lengthAdjust="spacing" textLength="87" x="120" y="622.4651">MX_GPIO_Init</text><rect fill="#F1F1F1" height="39.1201" rx="12.5" ry="12.5" style="stroke:#181818;stroke-width:1.5;" width="149" x="267" y="566.8611"/><text fill="#000000" font-family="sans-serif" font-size="14" lengthAdjust="spacing" textLength="129" x="277" y="592.905">HAL_GPIO_WritePin</text><path d="M217,615.9812 L227,615.9812 C242,615.9812 242,586.4211 257,586.4211 L267,586.4211 " fill="none" style="stroke:#181818;stroke-width:1.0;"/><rect fill="#F1F1F1" height="39.1201" rx="12.5" ry="12.5" style="stroke:#181818;stroke-width:1.5;" width="114" x="267" y="625.9812"/><text fill="#000000" font-family="sans-serif" font-size="14" lengthAdjust="spacing" textLength="94" x="277" y="652.0251">HAL_GPIO_Init</text><path d="M217,615.9812 L227,615.9812 C242,615.9812 242,645.5413 257,645.5413 L267,645.5413 " fill="none" style="stroke:#181818;stroke-width:1.0;"/><path d="M60,519.911 L70,519.911 C85,519.911 85,615.9812 100,615.9812 L110,615.9812 " fill="none" style="stroke:#181818;stroke-width:1.0;"/><rect fill="#F1F1F1" height="39.1201" rx="12.5" ry="12.5" style="stroke:#181818;stroke-width:1.5;" width="96" x="110" y="832.9016"/><text fill="#000000" font-family="sans-serif" font-size="14" lengthAdjust="spacing" textLength="76" x="120" y="858.9456">my_function</text><rect fill="#F1F1F1" height="39.1201" rx="12.5" ry="12.5" style="stroke:#181818;stroke-width:1.5;" width="149" x="256" y="685.1013"/><text fill="#000000" font-family="sans-serif" font-size="14" lengthAdjust="spacing" textLength="129" x="266" y="711.1453">HAL_GPIO_WritePin</text><path d="M206,852.4617 L216,852.4617 C231,852.4617 231,704.6614 246,704.6614 L256,704.6614 " fill="none" style="stroke:#181818;stroke-width:1.0;"/><rect fill="#F1F1F1" height="39.1201" rx="12.5" ry="12.5" style="stroke:#181818;stroke-width:1.5;" width="90" x="256" y="773.7815"/><text fill="#000000" font-family="sans-serif" font-size="14" lengthAdjust="spacing" textLength="70" x="266" y="799.8254">HAL_Delay</text><rect fill="#F1F1F1" height="39.1201" rx="12.5" ry="12.5" style="stroke:#181818;stroke-width:1.5;" width="103" x="396" y="744.2214"/><text fill="#000000" font-family="sans-serif" font-size="14" lengthAdjust="spacing" textLength="83" x="406" y="770.2654">HAL_GetTick</text><path d="M346,793.3416 L356,793.3416 C371,793.3416 371,763.7815 386,763.7815 L396,763.7815 " fill="none" style="stroke:#181818;stroke-width:1.0;"/><rect fill="#F1F1F1" height="39.1201" rx="12.5" ry="12.5" style="stroke:#181818;stroke-width:1.5;" width="103" x="396" y="803.3416"/><text fill="#000000" font-family="sans-serif" font-size="14" lengthAdjust="spacing" textLength="83" x="406" y="829.3855">HAL_GetTick</text><path d="M346,793.3416 L356,793.3416 C371,793.3416 371,822.9016 386,822.9016 L396,822.9016 " fill="none" style="stroke:#181818;stroke-width:1.0;"/><path d="M206,852.4617 L216,852.4617 C231,852.4617 231,793.3416 246,793.3416 L256,793.3416 " fill="none" style="stroke:#181818;stroke-width:1.0;"/><rect fill="#F1F1F1" height="39.1201" rx="12.5" ry="12.5" style="stroke:#181818;stroke-width:1.5;" width="149" x="256" y="862.4617"/><text fill="#000000" font-family="sans-serif" font-size="14" lengthAdjust="spacing" textLength="129" x="266" y="888.5056">HAL_GPIO_WritePin</text><path d="M206,852.4617 L216,852.4617 C231,852.4617 231,882.0217 246,882.0217 L256,882.0217 " fill="none" style="stroke:#181818;stroke-width:1.0;"/><rect fill="#F1F1F1" height="39.1201" rx="12.5" ry="12.5" style="stroke:#181818;stroke-width:1.5;" width="90" x="256" y="951.1418"/><text fill="#000000" font-family="sans-serif" font-size="14" lengthAdjust="spacing" textLength="70" x="266" y="977.1858">HAL_Delay</text><rect fill="#F1F1F1" height="39.1201" rx="12.5" ry="12.5" style="stroke:#181818;stroke-width:1.5;" width="103" x="396" y="921.5818"/><text fill="#000000" font-family="sans-serif" font-size="14" lengthAdjust="spacing" textLength="83" x="406" y="947.6257">HAL_GetTick</text><path d="M346,970.7019 L356,970.7019 C371,970.7019 371,941.1418 386,941.1418 L396,941.1418 " fill="none" style="stroke:#181818;stroke-width:1.0;"/><rect fill="#F1F1F1" height="39.1201" rx="12.5" ry="12.5" style="stroke:#181818;stroke-width:1.5;" width="103" x="396" y="980.7019"/><text fill="#000000" font-family="sans-serif" font-size="14" lengthAdjust="spacing" textLength="83" x="406" y="1006.7458">HAL_GetTick</text><path d="M346,970.7019 L356,970.7019 C371,970.7019 371,1000.262 386,1000.262 L396,1000.262 " fill="none" style="stroke:#181818;stroke-width:1.0;"/><path d="M206,852.4617 L216,852.4617 C231,852.4617 231,970.7019 246,970.7019 L256,970.7019 " fill="none" style="stroke:#181818;stroke-width:1.0;"/><path d="M60,519.911 L70,519.911 C85,519.911 85,852.4617 100,852.4617 L110,852.4617 " fill="none" style="stroke:#181818;stroke-width:1.0;"/><!--MD5=[2c596489f96b49c4796be8ca28dd3f35]
@startmindmap
* main
** HAL_Init
*** HAL_NVIC_SetPriorityGrouping
*** HAL_InitTick
**** HAL_SYSTICK_Config
**** HAL_NVIC_SetPriority
***** NVIC_EncodePriority
***** __NVIC_SetPriority
*** HAL_MspInit
** SystemClock_Config
*** memset
*** HAL_RCC_OscConfig
*** HAL_RCC_ClockConfig
**** HAL_GetTick
**** HAL_GetTick
**** HAL_RCC_GetSysClockFreq
**** HAL_InitTick
***** HAL_SYSTICK_Config
***** HAL_NVIC_SetPriority
****** NVIC_EncodePriority
****** __NVIC_SetPriority
*** Error_Handler
*** Error_Handler
** MX_GPIO_Init
*** HAL_GPIO_WritePin
*** HAL_GPIO_Init
** my_function
*** HAL_GPIO_WritePin
*** HAL_Delay
**** HAL_GetTick
**** HAL_GetTick
*** HAL_GPIO_WritePin
*** HAL_Delay
**** HAL_GetTick
**** HAL_GetTick
@endmindmap

PlantUML version 1.2022.7(Tue Aug 23 01:01:30 CST 2022)
(GPL source distribution)
Java Runtime: Java(TM) SE Runtime Environment
JVM: Java HotSpot(TM) 64-Bit Server VM
Default Encoding: GBK
Language: zh
Country: CN
--></g></svg>